<?xml version="1.0" encoding="UTF-8"?>
<svg id="_Слой_1" data-name="Слой_1" xmlns="http://www.w3.org/2000/svg" version="1.1" viewBox="0 0 64 64">
  <!-- Generator: Adobe Illustrator 29.3.1, SVG Export Plug-In . SVG Version: 2.1.0 Build 151)  -->
  <path d="M64,10.9l-3.9-5.8s-.3,3.7-3.1,9C51.4,5.6,41.9,0,31.2,0,14,0,0,14.3,0,32s2.4,14,6.4,19.4c-1.6.5-3.1,1-3.9,1.4l.2,6.9s2.8-2.2,7.9-3.7c5.5,5,12.7,8,20.6,8,17.2,0,31.2-14.3,31.2-32s-.8-8.3-2.3-12c1.6-3.2,2.9-6.3,3.9-9.2ZM54.8,17.7c-1.9,2.8-4.6,5.8-8.2,8.8,0,0,2.9-5.3,3-8.9l-1.4-1.5s2.5-1.5,3.5-2.8c1.2,1.4,2.2,2.8,3.1,4.3ZM35.6,24.2c-.5-.8-2.2-2.4-3.2-3.4.6,1.4.2,2.8-.6,4.2-1.1,1.9-6.2,9.1-6.2,9.1l-3.6-3c-6.1,9.9-13,12.5-15.4,13.2-.2-.5-.4-.9-.6-1.4-.1-.3-.2-.5-.3-.8.3-3.8,2-10.7,7.8-18.6,7.4-10,13.3-10.6,13.3-10.6,0,0-.8,2.5-3.5,5.7-2.7,3.2-3,5.6-2.4,6.5.6.9,5.2,5,5.2,5,0,0-2-3,.5-6.8,1.9-2.8,3.2-5.6,3.2-5.6-.3,4.2,14.1,0,14.2,0-2.2,5.6-8.6,10.6-8.8,10.8,1-1.2,1.2-3.1.4-4.4ZM23.6,37.5l-3.2,5.6c-2.1.5-3.2.8-3.2.8,3-2.4,6.2-6.3,6.3-6.4ZM32.9,14.5s6.4-4.9,15.4-4.1c0,0-5.6,4.5-15.4,4.1ZM11.8,12.1c2.5-2.6,5.4-4.6,8.7-6,3.4-1.5,7-2.2,10.7-2.2s6.7.6,9.8,1.9c-.6.1-1.3.3-2.1.5-7.8,2.2-10.1,5.8-10.1,5.8,0,0-1.8-2.2-2.5-3-4.9-5-15.8,6.5-21.5,15.1.3-1.1.7-2.1,1.1-3.2,1.4-3.3,3.4-6.4,5.9-8.9ZM8.4,47.7c.7.2,1.5.2,2.6-.1,2.6-.7,4.2-2.3,4.2-2.3l.5,3.4s-2.5.7-5.5,1.5c-.7-.8-1.3-1.7-1.9-2.5ZM50.6,51.9c-2.5,2.6-5.4,4.6-8.7,6-3.4,1.5-7,2.2-10.7,2.2s-7.3-.7-10.7-2.2c-1.8-.8-3.6-1.8-5.2-3,.8-.1,1.6-.2,2.4-.3,6.6-.5,14.2-.2,20.7-.4,3.1,0,8.8-.3,8.8-.3l.9-5.8c-3.1.9-19.1-.5-28.4.2,0,0,3.7-1.2,11-2l-.9-4.8s-1.2.1-2.7.3c0,0,4-4.8,7.8-6.5,0,0-4.1,4.6-2.5,9.3l4.4,3s-1.1-1.6,2.2-5.2c3.3-3.6,7.4-8,7.5-8.1,0,.1-3.4,5-2,8.1,1.4,3.1,6.8,5,6.8,5-1.4-1.9-2.6-3.3.9-5.9l5.3-3.8c.2-.1.3-.2.4-.3-.4,1.9-.9,3.8-1.7,5.6-1.4,3.3-3.4,6.4-5.9,8.9ZM57.7,24.8c0,.4.4,5.3-1.6,7.4-2.1,2.2-5.2,4.1-5.2,4.1,2.5-3.9,4.8-7.7,6.8-11.4,0,0,0,0,0,0Z"/>
</svg>